<mxfile host="app.diagrams.net" modified="2022-02-04T19:13:02.585Z" agent="5.0 (Windows NT 10.0; Win64; x64) AppleWebKit/537.36 (KHTML, like Gecko) Chrome/97.0.4692.99 Safari/537.36 Edg/97.0.1072.76" etag="2tzeH4L08W-nXBTEHmdd" version="16.5.3" type="github">
  <diagram id="IfD7oRMzPhSw_ENrBzub" name="Page-1">
    <mxGraphModel dx="827" dy="1638" grid="1" gridSize="10" guides="1" tooltips="1" connect="1" arrows="1" fold="1" page="1" pageScale="1" pageWidth="827" pageHeight="1169" math="0" shadow="0">
      <root>
        <mxCell id="0" />
        <mxCell id="1" parent="0" />
        <mxCell id="JHwBy-R3EQrGpB1JbKuy-1" value="Forma de pagamento" style="whiteSpace=wrap;html=1;align=center;fillColor=#d5e8d4;strokeColor=#82b366;" vertex="1" parent="1">
          <mxGeometry x="583" y="340" width="100" height="40" as="geometry" />
        </mxCell>
        <mxCell id="JHwBy-R3EQrGpB1JbKuy-10" value="" style="edgeStyle=orthogonalEdgeStyle;rounded=0;orthogonalLoop=1;jettySize=auto;html=1;endArrow=none;endFill=0;" edge="1" parent="1" source="JHwBy-R3EQrGpB1JbKuy-2" target="JHwBy-R3EQrGpB1JbKuy-1">
          <mxGeometry relative="1" as="geometry" />
        </mxCell>
        <mxCell id="JHwBy-R3EQrGpB1JbKuy-2" value="Nome" style="ellipse;whiteSpace=wrap;html=1;align=center;" vertex="1" parent="1">
          <mxGeometry x="583" y="220" width="100" height="40" as="geometry" />
        </mxCell>
        <mxCell id="JHwBy-R3EQrGpB1JbKuy-8" style="edgeStyle=orthogonalEdgeStyle;rounded=0;orthogonalLoop=1;jettySize=auto;html=1;entryX=1;entryY=0.5;entryDx=0;entryDy=0;endArrow=none;endFill=0;" edge="1" parent="1" source="JHwBy-R3EQrGpB1JbKuy-3" target="JHwBy-R3EQrGpB1JbKuy-1">
          <mxGeometry relative="1" as="geometry" />
        </mxCell>
        <mxCell id="JHwBy-R3EQrGpB1JbKuy-3" value="Tipo" style="ellipse;whiteSpace=wrap;html=1;align=center;" vertex="1" parent="1">
          <mxGeometry x="673" y="250" width="100" height="40" as="geometry" />
        </mxCell>
        <mxCell id="JHwBy-R3EQrGpB1JbKuy-5" value="" style="edgeStyle=orthogonalEdgeStyle;rounded=0;orthogonalLoop=1;jettySize=auto;html=1;endArrow=none;endFill=0;entryX=0.25;entryY=0;entryDx=0;entryDy=0;" edge="1" parent="1" source="JHwBy-R3EQrGpB1JbKuy-4" target="JHwBy-R3EQrGpB1JbKuy-1">
          <mxGeometry relative="1" as="geometry" />
        </mxCell>
        <mxCell id="JHwBy-R3EQrGpB1JbKuy-4" value="&lt;span style=&quot;border-bottom: 1px dotted&quot;&gt;Codigo&lt;br&gt;&lt;/span&gt;" style="ellipse;whiteSpace=wrap;html=1;align=center;" vertex="1" parent="1">
          <mxGeometry x="493" y="250" width="100" height="40" as="geometry" />
        </mxCell>
        <mxCell id="JHwBy-R3EQrGpB1JbKuy-39" value="" style="edgeStyle=orthogonalEdgeStyle;rounded=0;orthogonalLoop=1;jettySize=auto;html=1;endArrow=none;endFill=0;" edge="1" parent="1" source="JHwBy-R3EQrGpB1JbKuy-11" target="JHwBy-R3EQrGpB1JbKuy-38">
          <mxGeometry relative="1" as="geometry" />
        </mxCell>
        <mxCell id="JHwBy-R3EQrGpB1JbKuy-11" value="Produto" style="whiteSpace=wrap;html=1;align=center;fillColor=#d5e8d4;strokeColor=#82b366;" vertex="1" parent="1">
          <mxGeometry x="230" y="690" width="100" height="40" as="geometry" />
        </mxCell>
        <mxCell id="JHwBy-R3EQrGpB1JbKuy-12" value="" style="edgeStyle=orthogonalEdgeStyle;rounded=0;orthogonalLoop=1;jettySize=auto;html=1;endArrow=none;endFill=0;entryX=0.25;entryY=0;entryDx=0;entryDy=0;" edge="1" parent="1" source="JHwBy-R3EQrGpB1JbKuy-13" target="JHwBy-R3EQrGpB1JbKuy-11">
          <mxGeometry relative="1" as="geometry" />
        </mxCell>
        <mxCell id="JHwBy-R3EQrGpB1JbKuy-13" value="Nome" style="ellipse;whiteSpace=wrap;html=1;align=center;" vertex="1" parent="1">
          <mxGeometry x="140" y="590" width="100" height="40" as="geometry" />
        </mxCell>
        <mxCell id="JHwBy-R3EQrGpB1JbKuy-14" style="edgeStyle=orthogonalEdgeStyle;rounded=0;orthogonalLoop=1;jettySize=auto;html=1;entryX=0.75;entryY=0;entryDx=0;entryDy=0;endArrow=none;endFill=0;" edge="1" parent="1" source="JHwBy-R3EQrGpB1JbKuy-15" target="JHwBy-R3EQrGpB1JbKuy-11">
          <mxGeometry relative="1" as="geometry" />
        </mxCell>
        <mxCell id="JHwBy-R3EQrGpB1JbKuy-15" value="Descricao" style="ellipse;whiteSpace=wrap;html=1;align=center;" vertex="1" parent="1">
          <mxGeometry x="320" y="600" width="100" height="40" as="geometry" />
        </mxCell>
        <mxCell id="JHwBy-R3EQrGpB1JbKuy-16" value="" style="edgeStyle=orthogonalEdgeStyle;rounded=0;orthogonalLoop=1;jettySize=auto;html=1;endArrow=none;endFill=0;entryX=0;entryY=0.5;entryDx=0;entryDy=0;" edge="1" parent="1" source="JHwBy-R3EQrGpB1JbKuy-17" target="JHwBy-R3EQrGpB1JbKuy-11">
          <mxGeometry relative="1" as="geometry" />
        </mxCell>
        <mxCell id="JHwBy-R3EQrGpB1JbKuy-17" value="&lt;span style=&quot;border-bottom: 1px dotted&quot;&gt;Codigo&lt;br&gt;&lt;/span&gt;" style="ellipse;whiteSpace=wrap;html=1;align=center;" vertex="1" parent="1">
          <mxGeometry x="80" y="690" width="100" height="40" as="geometry" />
        </mxCell>
        <mxCell id="JHwBy-R3EQrGpB1JbKuy-18" value="Marca" style="whiteSpace=wrap;html=1;align=center;" vertex="1" parent="1">
          <mxGeometry x="590" y="690" width="100" height="40" as="geometry" />
        </mxCell>
        <mxCell id="JHwBy-R3EQrGpB1JbKuy-19" value="" style="edgeStyle=orthogonalEdgeStyle;rounded=0;orthogonalLoop=1;jettySize=auto;html=1;endArrow=none;endFill=0;" edge="1" parent="1" source="JHwBy-R3EQrGpB1JbKuy-20" target="JHwBy-R3EQrGpB1JbKuy-18">
          <mxGeometry relative="1" as="geometry" />
        </mxCell>
        <mxCell id="JHwBy-R3EQrGpB1JbKuy-20" value="Nome" style="ellipse;whiteSpace=wrap;html=1;align=center;" vertex="1" parent="1">
          <mxGeometry x="590" y="570" width="100" height="40" as="geometry" />
        </mxCell>
        <mxCell id="JHwBy-R3EQrGpB1JbKuy-21" style="edgeStyle=orthogonalEdgeStyle;rounded=0;orthogonalLoop=1;jettySize=auto;html=1;entryX=1;entryY=0.5;entryDx=0;entryDy=0;endArrow=none;endFill=0;" edge="1" parent="1" source="JHwBy-R3EQrGpB1JbKuy-22" target="JHwBy-R3EQrGpB1JbKuy-18">
          <mxGeometry relative="1" as="geometry" />
        </mxCell>
        <mxCell id="JHwBy-R3EQrGpB1JbKuy-22" value="Empresa" style="ellipse;whiteSpace=wrap;html=1;align=center;" vertex="1" parent="1">
          <mxGeometry x="680" y="600" width="100" height="40" as="geometry" />
        </mxCell>
        <mxCell id="JHwBy-R3EQrGpB1JbKuy-23" value="" style="edgeStyle=orthogonalEdgeStyle;rounded=0;orthogonalLoop=1;jettySize=auto;html=1;endArrow=none;endFill=0;entryX=0.25;entryY=0;entryDx=0;entryDy=0;" edge="1" parent="1" source="JHwBy-R3EQrGpB1JbKuy-24" target="JHwBy-R3EQrGpB1JbKuy-18">
          <mxGeometry relative="1" as="geometry" />
        </mxCell>
        <mxCell id="JHwBy-R3EQrGpB1JbKuy-24" value="&lt;span style=&quot;border-bottom: 1px dotted&quot;&gt;Codigo&lt;br&gt;&lt;/span&gt;" style="ellipse;whiteSpace=wrap;html=1;align=center;" vertex="1" parent="1">
          <mxGeometry x="500" y="600" width="100" height="40" as="geometry" />
        </mxCell>
        <mxCell id="JHwBy-R3EQrGpB1JbKuy-33" style="edgeStyle=orthogonalEdgeStyle;rounded=0;orthogonalLoop=1;jettySize=auto;html=1;entryX=0;entryY=0.5;entryDx=0;entryDy=0;endArrow=none;endFill=0;" edge="1" parent="1" source="JHwBy-R3EQrGpB1JbKuy-25" target="JHwBy-R3EQrGpB1JbKuy-32">
          <mxGeometry relative="1" as="geometry" />
        </mxCell>
        <mxCell id="JHwBy-R3EQrGpB1JbKuy-25" value="Venda" style="whiteSpace=wrap;html=1;align=center;fillColor=#d5e8d4;strokeColor=#82b366;" vertex="1" parent="1">
          <mxGeometry x="203" y="340" width="100" height="40" as="geometry" />
        </mxCell>
        <mxCell id="JHwBy-R3EQrGpB1JbKuy-26" value="" style="edgeStyle=orthogonalEdgeStyle;rounded=0;orthogonalLoop=1;jettySize=auto;html=1;endArrow=none;endFill=0;" edge="1" parent="1" source="JHwBy-R3EQrGpB1JbKuy-27" target="JHwBy-R3EQrGpB1JbKuy-25">
          <mxGeometry relative="1" as="geometry" />
        </mxCell>
        <mxCell id="JHwBy-R3EQrGpB1JbKuy-27" value="Valor" style="ellipse;whiteSpace=wrap;html=1;align=center;" vertex="1" parent="1">
          <mxGeometry x="53" y="340" width="100" height="40" as="geometry" />
        </mxCell>
        <mxCell id="JHwBy-R3EQrGpB1JbKuy-28" style="edgeStyle=orthogonalEdgeStyle;rounded=0;orthogonalLoop=1;jettySize=auto;html=1;entryX=0;entryY=0.75;entryDx=0;entryDy=0;endArrow=none;endFill=0;" edge="1" parent="1" source="JHwBy-R3EQrGpB1JbKuy-29" target="JHwBy-R3EQrGpB1JbKuy-25">
          <mxGeometry relative="1" as="geometry" />
        </mxCell>
        <mxCell id="JHwBy-R3EQrGpB1JbKuy-29" value="Data" style="ellipse;whiteSpace=wrap;html=1;align=center;" vertex="1" parent="1">
          <mxGeometry x="53" y="390" width="100" height="40" as="geometry" />
        </mxCell>
        <mxCell id="JHwBy-R3EQrGpB1JbKuy-30" value="" style="edgeStyle=orthogonalEdgeStyle;rounded=0;orthogonalLoop=1;jettySize=auto;html=1;endArrow=none;endFill=0;entryX=0;entryY=0.25;entryDx=0;entryDy=0;" edge="1" parent="1" source="JHwBy-R3EQrGpB1JbKuy-31" target="JHwBy-R3EQrGpB1JbKuy-25">
          <mxGeometry relative="1" as="geometry" />
        </mxCell>
        <mxCell id="JHwBy-R3EQrGpB1JbKuy-31" value="&lt;span style=&quot;border-bottom: 1px dotted&quot;&gt;Codigo&lt;br&gt;&lt;/span&gt;" style="ellipse;whiteSpace=wrap;html=1;align=center;" vertex="1" parent="1">
          <mxGeometry x="53" y="290" width="100" height="40" as="geometry" />
        </mxCell>
        <mxCell id="JHwBy-R3EQrGpB1JbKuy-34" style="edgeStyle=orthogonalEdgeStyle;rounded=0;orthogonalLoop=1;jettySize=auto;html=1;entryX=0;entryY=0.5;entryDx=0;entryDy=0;endArrow=none;endFill=0;" edge="1" parent="1" source="JHwBy-R3EQrGpB1JbKuy-32" target="JHwBy-R3EQrGpB1JbKuy-1">
          <mxGeometry relative="1" as="geometry" />
        </mxCell>
        <mxCell id="JHwBy-R3EQrGpB1JbKuy-32" value="Contem" style="shape=rhombus;perimeter=rhombusPerimeter;whiteSpace=wrap;html=1;align=center;fillColor=#f8cecc;strokeColor=#b85450;" vertex="1" parent="1">
          <mxGeometry x="387" y="330" width="120" height="60" as="geometry" />
        </mxCell>
        <mxCell id="JHwBy-R3EQrGpB1JbKuy-41" value="" style="edgeStyle=orthogonalEdgeStyle;rounded=0;orthogonalLoop=1;jettySize=auto;html=1;endArrow=none;endFill=0;" edge="1" parent="1" source="JHwBy-R3EQrGpB1JbKuy-38" target="JHwBy-R3EQrGpB1JbKuy-18">
          <mxGeometry relative="1" as="geometry" />
        </mxCell>
        <mxCell id="JHwBy-R3EQrGpB1JbKuy-38" value="Possui" style="shape=rhombus;perimeter=rhombusPerimeter;whiteSpace=wrap;html=1;align=center;" vertex="1" parent="1">
          <mxGeometry x="400" y="680" width="120" height="60" as="geometry" />
        </mxCell>
        <mxCell id="JHwBy-R3EQrGpB1JbKuy-99" style="edgeStyle=orthogonalEdgeStyle;rounded=0;orthogonalLoop=1;jettySize=auto;html=1;entryX=0;entryY=0.5;entryDx=0;entryDy=0;endArrow=none;endFill=0;exitX=0.75;exitY=1;exitDx=0;exitDy=0;" edge="1" parent="1" source="JHwBy-R3EQrGpB1JbKuy-44" target="JHwBy-R3EQrGpB1JbKuy-66">
          <mxGeometry relative="1" as="geometry" />
        </mxCell>
        <mxCell id="JHwBy-R3EQrGpB1JbKuy-101" value="" style="edgeStyle=orthogonalEdgeStyle;rounded=0;orthogonalLoop=1;jettySize=auto;html=1;endArrow=none;endFill=0;" edge="1" parent="1" source="JHwBy-R3EQrGpB1JbKuy-44" target="JHwBy-R3EQrGpB1JbKuy-100">
          <mxGeometry relative="1" as="geometry" />
        </mxCell>
        <mxCell id="JHwBy-R3EQrGpB1JbKuy-44" value="Cliente" style="whiteSpace=wrap;html=1;align=center;fillColor=#d5e8d4;strokeColor=#82b366;" vertex="1" parent="1">
          <mxGeometry x="180" width="100" height="40" as="geometry" />
        </mxCell>
        <mxCell id="JHwBy-R3EQrGpB1JbKuy-45" value="" style="edgeStyle=orthogonalEdgeStyle;rounded=0;orthogonalLoop=1;jettySize=auto;html=1;endArrow=none;endFill=0;" edge="1" parent="1" target="JHwBy-R3EQrGpB1JbKuy-44">
          <mxGeometry relative="1" as="geometry">
            <mxPoint x="230" y="-80" as="sourcePoint" />
          </mxGeometry>
        </mxCell>
        <mxCell id="JHwBy-R3EQrGpB1JbKuy-49" value="" style="edgeStyle=orthogonalEdgeStyle;rounded=0;orthogonalLoop=1;jettySize=auto;html=1;endArrow=none;endFill=0;entryX=0.25;entryY=0;entryDx=0;entryDy=0;" edge="1" parent="1" source="JHwBy-R3EQrGpB1JbKuy-50" target="JHwBy-R3EQrGpB1JbKuy-44">
          <mxGeometry relative="1" as="geometry" />
        </mxCell>
        <mxCell id="JHwBy-R3EQrGpB1JbKuy-50" value="&lt;span style=&quot;border-bottom: 1px dotted&quot;&gt;CPF&lt;br&gt;&lt;/span&gt;" style="ellipse;whiteSpace=wrap;html=1;align=center;" vertex="1" parent="1">
          <mxGeometry x="90" y="-90" width="100" height="40" as="geometry" />
        </mxCell>
        <mxCell id="JHwBy-R3EQrGpB1JbKuy-51" value="" style="edgeStyle=orthogonalEdgeStyle;rounded=0;orthogonalLoop=1;jettySize=auto;html=1;endArrow=none;endFill=0;" edge="1" parent="1" source="JHwBy-R3EQrGpB1JbKuy-52" target="JHwBy-R3EQrGpB1JbKuy-44">
          <mxGeometry relative="1" as="geometry" />
        </mxCell>
        <mxCell id="JHwBy-R3EQrGpB1JbKuy-52" value="Nome" style="ellipse;whiteSpace=wrap;html=1;align=center;" vertex="1" parent="1">
          <mxGeometry x="30" width="100" height="40" as="geometry" />
        </mxCell>
        <mxCell id="JHwBy-R3EQrGpB1JbKuy-53" value="" style="edgeStyle=orthogonalEdgeStyle;rounded=0;orthogonalLoop=1;jettySize=auto;html=1;endArrow=none;endFill=0;entryX=0.25;entryY=1;entryDx=0;entryDy=0;" edge="1" parent="1" source="JHwBy-R3EQrGpB1JbKuy-54" target="JHwBy-R3EQrGpB1JbKuy-44">
          <mxGeometry relative="1" as="geometry" />
        </mxCell>
        <mxCell id="JHwBy-R3EQrGpB1JbKuy-54" value="E-mail" style="ellipse;shape=doubleEllipse;margin=3;whiteSpace=wrap;html=1;align=center;" vertex="1" parent="1">
          <mxGeometry x="60" y="90" width="100" height="40" as="geometry" />
        </mxCell>
        <mxCell id="JHwBy-R3EQrGpB1JbKuy-55" value="Telefone" style="ellipse;shape=doubleEllipse;margin=3;whiteSpace=wrap;html=1;align=center;" vertex="1" parent="1">
          <mxGeometry x="180" y="-120" width="100" height="40" as="geometry" />
        </mxCell>
        <mxCell id="JHwBy-R3EQrGpB1JbKuy-57" value="" style="edgeStyle=orthogonalEdgeStyle;rounded=0;orthogonalLoop=1;jettySize=auto;html=1;endArrow=none;endFill=0;" edge="1" parent="1" source="JHwBy-R3EQrGpB1JbKuy-56" target="JHwBy-R3EQrGpB1JbKuy-44">
          <mxGeometry relative="1" as="geometry" />
        </mxCell>
        <mxCell id="JHwBy-R3EQrGpB1JbKuy-56" value="Endereco" style="ellipse;whiteSpace=wrap;html=1;align=center;" vertex="1" parent="1">
          <mxGeometry x="340" width="100" height="40" as="geometry" />
        </mxCell>
        <mxCell id="JHwBy-R3EQrGpB1JbKuy-65" style="edgeStyle=orthogonalEdgeStyle;rounded=0;orthogonalLoop=1;jettySize=auto;html=1;entryX=1;entryY=0.5;entryDx=0;entryDy=0;endArrow=none;endFill=0;" edge="1" parent="1" source="JHwBy-R3EQrGpB1JbKuy-58" target="JHwBy-R3EQrGpB1JbKuy-56">
          <mxGeometry relative="1" as="geometry" />
        </mxCell>
        <mxCell id="JHwBy-R3EQrGpB1JbKuy-58" value="Cidade" style="ellipse;whiteSpace=wrap;html=1;align=center;" vertex="1" parent="1">
          <mxGeometry x="470" y="-30" width="100" height="40" as="geometry" />
        </mxCell>
        <mxCell id="JHwBy-R3EQrGpB1JbKuy-64" style="edgeStyle=orthogonalEdgeStyle;rounded=0;orthogonalLoop=1;jettySize=auto;html=1;entryX=1;entryY=0;entryDx=0;entryDy=0;endArrow=none;endFill=0;" edge="1" parent="1" source="JHwBy-R3EQrGpB1JbKuy-59" target="JHwBy-R3EQrGpB1JbKuy-56">
          <mxGeometry relative="1" as="geometry" />
        </mxCell>
        <mxCell id="JHwBy-R3EQrGpB1JbKuy-59" value="Estado" style="ellipse;whiteSpace=wrap;html=1;align=center;" vertex="1" parent="1">
          <mxGeometry x="440" y="-100" width="100" height="40" as="geometry" />
        </mxCell>
        <mxCell id="JHwBy-R3EQrGpB1JbKuy-63" style="edgeStyle=orthogonalEdgeStyle;rounded=0;orthogonalLoop=1;jettySize=auto;html=1;entryX=0.5;entryY=0;entryDx=0;entryDy=0;endArrow=none;endFill=0;" edge="1" parent="1" source="JHwBy-R3EQrGpB1JbKuy-60" target="JHwBy-R3EQrGpB1JbKuy-56">
          <mxGeometry relative="1" as="geometry" />
        </mxCell>
        <mxCell id="JHwBy-R3EQrGpB1JbKuy-60" value="Logradouro" style="ellipse;whiteSpace=wrap;html=1;align=center;" vertex="1" parent="1">
          <mxGeometry x="340" y="-100" width="100" height="40" as="geometry" />
        </mxCell>
        <mxCell id="JHwBy-R3EQrGpB1JbKuy-62" style="edgeStyle=orthogonalEdgeStyle;rounded=0;orthogonalLoop=1;jettySize=auto;html=1;entryX=0;entryY=0;entryDx=0;entryDy=0;endArrow=none;endFill=0;" edge="1" parent="1" source="JHwBy-R3EQrGpB1JbKuy-61" target="JHwBy-R3EQrGpB1JbKuy-56">
          <mxGeometry relative="1" as="geometry" />
        </mxCell>
        <mxCell id="JHwBy-R3EQrGpB1JbKuy-61" value="CEP" style="ellipse;whiteSpace=wrap;html=1;align=center;" vertex="1" parent="1">
          <mxGeometry x="300" y="-60" width="60" height="40" as="geometry" />
        </mxCell>
        <mxCell id="JHwBy-R3EQrGpB1JbKuy-77" style="edgeStyle=orthogonalEdgeStyle;rounded=0;orthogonalLoop=1;jettySize=auto;html=1;entryX=0;entryY=0.5;entryDx=0;entryDy=0;endArrow=none;endFill=0;" edge="1" parent="1" source="JHwBy-R3EQrGpB1JbKuy-66" target="JHwBy-R3EQrGpB1JbKuy-68">
          <mxGeometry relative="1" as="geometry" />
        </mxCell>
        <mxCell id="JHwBy-R3EQrGpB1JbKuy-66" value="Possui" style="shape=rhombus;perimeter=rhombusPerimeter;whiteSpace=wrap;html=1;align=center;fillColor=#f8cecc;strokeColor=#b85450;" vertex="1" parent="1">
          <mxGeometry x="360" y="80" width="120" height="60" as="geometry" />
        </mxCell>
        <mxCell id="JHwBy-R3EQrGpB1JbKuy-68" value="Fidelidade" style="whiteSpace=wrap;html=1;align=center;fillColor=#d5e8d4;strokeColor=#82b366;" vertex="1" parent="1">
          <mxGeometry x="610" y="90" width="100" height="40" as="geometry" />
        </mxCell>
        <mxCell id="JHwBy-R3EQrGpB1JbKuy-69" value="" style="edgeStyle=orthogonalEdgeStyle;rounded=0;orthogonalLoop=1;jettySize=auto;html=1;endArrow=none;endFill=0;" edge="1" parent="1" source="JHwBy-R3EQrGpB1JbKuy-70" target="JHwBy-R3EQrGpB1JbKuy-68">
          <mxGeometry relative="1" as="geometry" />
        </mxCell>
        <mxCell id="JHwBy-R3EQrGpB1JbKuy-70" value="Data_Adesao" style="ellipse;whiteSpace=wrap;html=1;align=center;" vertex="1" parent="1">
          <mxGeometry x="610" y="-5" width="100" height="40" as="geometry" />
        </mxCell>
        <mxCell id="JHwBy-R3EQrGpB1JbKuy-71" style="edgeStyle=orthogonalEdgeStyle;rounded=0;orthogonalLoop=1;jettySize=auto;html=1;entryX=0.75;entryY=0;entryDx=0;entryDy=0;endArrow=none;endFill=0;" edge="1" parent="1" target="JHwBy-R3EQrGpB1JbKuy-68">
          <mxGeometry relative="1" as="geometry">
            <mxPoint x="720" y="45" as="sourcePoint" />
          </mxGeometry>
        </mxCell>
        <mxCell id="JHwBy-R3EQrGpB1JbKuy-72" value="Pontos" style="ellipse;whiteSpace=wrap;html=1;align=center;" vertex="1" parent="1">
          <mxGeometry x="720" y="25" width="100" height="40" as="geometry" />
        </mxCell>
        <mxCell id="JHwBy-R3EQrGpB1JbKuy-76" style="edgeStyle=orthogonalEdgeStyle;rounded=0;orthogonalLoop=1;jettySize=auto;html=1;entryX=0.25;entryY=0;entryDx=0;entryDy=0;endArrow=none;endFill=0;" edge="1" parent="1" source="JHwBy-R3EQrGpB1JbKuy-74" target="JHwBy-R3EQrGpB1JbKuy-68">
          <mxGeometry relative="1" as="geometry" />
        </mxCell>
        <mxCell id="JHwBy-R3EQrGpB1JbKuy-74" value="&lt;span style=&quot;border-bottom: 1px dotted&quot;&gt;CPF Membro&lt;br&gt;&lt;/span&gt;" style="ellipse;whiteSpace=wrap;html=1;align=center;" vertex="1" parent="1">
          <mxGeometry x="500" y="25" width="100" height="40" as="geometry" />
        </mxCell>
        <mxCell id="JHwBy-R3EQrGpB1JbKuy-79" value="Compra" style="whiteSpace=wrap;html=1;align=center;fillColor=#d5e8d4;strokeColor=#82b366;" vertex="1" parent="1">
          <mxGeometry x="230" y="940" width="100" height="40" as="geometry" />
        </mxCell>
        <mxCell id="JHwBy-R3EQrGpB1JbKuy-80" value="" style="edgeStyle=orthogonalEdgeStyle;rounded=0;orthogonalLoop=1;jettySize=auto;html=1;endArrow=none;endFill=0;entryX=0.75;entryY=0;entryDx=0;entryDy=0;" edge="1" parent="1" source="JHwBy-R3EQrGpB1JbKuy-81" target="JHwBy-R3EQrGpB1JbKuy-79">
          <mxGeometry relative="1" as="geometry" />
        </mxCell>
        <mxCell id="JHwBy-R3EQrGpB1JbKuy-81" value="Valor" style="ellipse;whiteSpace=wrap;html=1;align=center;" vertex="1" parent="1">
          <mxGeometry x="320" y="850" width="100" height="40" as="geometry" />
        </mxCell>
        <mxCell id="JHwBy-R3EQrGpB1JbKuy-82" style="edgeStyle=orthogonalEdgeStyle;rounded=0;orthogonalLoop=1;jettySize=auto;html=1;entryX=1;entryY=0.5;entryDx=0;entryDy=0;endArrow=none;endFill=0;" edge="1" parent="1" source="JHwBy-R3EQrGpB1JbKuy-83" target="JHwBy-R3EQrGpB1JbKuy-79">
          <mxGeometry relative="1" as="geometry" />
        </mxCell>
        <mxCell id="JHwBy-R3EQrGpB1JbKuy-83" value="Data" style="ellipse;whiteSpace=wrap;html=1;align=center;" vertex="1" parent="1">
          <mxGeometry x="380" y="940" width="100" height="40" as="geometry" />
        </mxCell>
        <mxCell id="JHwBy-R3EQrGpB1JbKuy-84" value="" style="edgeStyle=orthogonalEdgeStyle;rounded=0;orthogonalLoop=1;jettySize=auto;html=1;endArrow=none;endFill=0;entryX=0.25;entryY=0;entryDx=0;entryDy=0;" edge="1" parent="1" source="JHwBy-R3EQrGpB1JbKuy-85" target="JHwBy-R3EQrGpB1JbKuy-79">
          <mxGeometry relative="1" as="geometry" />
        </mxCell>
        <mxCell id="JHwBy-R3EQrGpB1JbKuy-85" value="&lt;span style=&quot;border-bottom: 1px dotted&quot;&gt;Codigo&lt;br&gt;&lt;/span&gt;" style="ellipse;whiteSpace=wrap;html=1;align=center;" vertex="1" parent="1">
          <mxGeometry x="140" y="850" width="100" height="40" as="geometry" />
        </mxCell>
        <mxCell id="JHwBy-R3EQrGpB1JbKuy-86" value="" style="edgeStyle=orthogonalEdgeStyle;rounded=0;orthogonalLoop=1;jettySize=auto;html=1;endArrow=none;endFill=0;" edge="1" parent="1" source="JHwBy-R3EQrGpB1JbKuy-87" target="JHwBy-R3EQrGpB1JbKuy-79">
          <mxGeometry relative="1" as="geometry" />
        </mxCell>
        <mxCell id="JHwBy-R3EQrGpB1JbKuy-87" value="Distribuidor" style="ellipse;whiteSpace=wrap;html=1;align=center;" vertex="1" parent="1">
          <mxGeometry x="80" y="940" width="100" height="40" as="geometry" />
        </mxCell>
        <mxCell id="JHwBy-R3EQrGpB1JbKuy-91" style="edgeStyle=orthogonalEdgeStyle;rounded=0;orthogonalLoop=1;jettySize=auto;html=1;entryX=0.5;entryY=1;entryDx=0;entryDy=0;endArrow=none;endFill=0;" edge="1" parent="1" source="JHwBy-R3EQrGpB1JbKuy-90" target="JHwBy-R3EQrGpB1JbKuy-79">
          <mxGeometry relative="1" as="geometry" />
        </mxCell>
        <mxCell id="JHwBy-R3EQrGpB1JbKuy-90" value="Entregue" style="ellipse;whiteSpace=wrap;html=1;align=center;" vertex="1" parent="1">
          <mxGeometry x="80" y="1010" width="100" height="40" as="geometry" />
        </mxCell>
        <mxCell id="JHwBy-R3EQrGpB1JbKuy-94" value="" style="edgeStyle=orthogonalEdgeStyle;rounded=0;orthogonalLoop=1;jettySize=auto;html=1;endArrow=none;endFill=0;" edge="1" parent="1" source="JHwBy-R3EQrGpB1JbKuy-92" target="JHwBy-R3EQrGpB1JbKuy-11">
          <mxGeometry relative="1" as="geometry" />
        </mxCell>
        <mxCell id="JHwBy-R3EQrGpB1JbKuy-95" value="" style="edgeStyle=orthogonalEdgeStyle;rounded=0;orthogonalLoop=1;jettySize=auto;html=1;endArrow=none;endFill=0;" edge="1" parent="1" source="JHwBy-R3EQrGpB1JbKuy-92" target="JHwBy-R3EQrGpB1JbKuy-79">
          <mxGeometry relative="1" as="geometry" />
        </mxCell>
        <mxCell id="JHwBy-R3EQrGpB1JbKuy-92" value="Contem" style="shape=rhombus;perimeter=rhombusPerimeter;whiteSpace=wrap;html=1;align=center;fillColor=#f8cecc;strokeColor=#b85450;" vertex="1" parent="1">
          <mxGeometry x="220" y="790" width="120" height="60" as="geometry" />
        </mxCell>
        <mxCell id="JHwBy-R3EQrGpB1JbKuy-97" value="" style="edgeStyle=orthogonalEdgeStyle;rounded=0;orthogonalLoop=1;jettySize=auto;html=1;endArrow=none;endFill=0;" edge="1" parent="1" target="JHwBy-R3EQrGpB1JbKuy-25">
          <mxGeometry relative="1" as="geometry">
            <mxPoint x="253" y="460" as="sourcePoint" />
          </mxGeometry>
        </mxCell>
        <mxCell id="JHwBy-R3EQrGpB1JbKuy-98" value="" style="edgeStyle=orthogonalEdgeStyle;rounded=0;orthogonalLoop=1;jettySize=auto;html=1;endArrow=none;endFill=0;" edge="1" parent="1" source="JHwBy-R3EQrGpB1JbKuy-96" target="JHwBy-R3EQrGpB1JbKuy-11">
          <mxGeometry relative="1" as="geometry" />
        </mxCell>
        <mxCell id="JHwBy-R3EQrGpB1JbKuy-96" value="Contem" style="shape=rhombus;perimeter=rhombusPerimeter;whiteSpace=wrap;html=1;align=center;fillColor=#f8cecc;strokeColor=#b85450;" vertex="1" parent="1">
          <mxGeometry x="220" y="520" width="120" height="60" as="geometry" />
        </mxCell>
        <mxCell id="JHwBy-R3EQrGpB1JbKuy-102" style="edgeStyle=orthogonalEdgeStyle;rounded=0;orthogonalLoop=1;jettySize=auto;html=1;entryX=0.5;entryY=0;entryDx=0;entryDy=0;endArrow=none;endFill=0;" edge="1" parent="1" source="JHwBy-R3EQrGpB1JbKuy-100" target="JHwBy-R3EQrGpB1JbKuy-25">
          <mxGeometry relative="1" as="geometry" />
        </mxCell>
        <mxCell id="JHwBy-R3EQrGpB1JbKuy-100" value="Realiza" style="shape=rhombus;perimeter=rhombusPerimeter;whiteSpace=wrap;html=1;align=center;fillColor=#f8cecc;strokeColor=#b85450;" vertex="1" parent="1">
          <mxGeometry x="170" y="140" width="120" height="60" as="geometry" />
        </mxCell>
        <mxCell id="JHwBy-R3EQrGpB1JbKuy-103" value="1" style="text;strokeColor=none;fillColor=none;spacingLeft=4;spacingRight=4;overflow=hidden;rotatable=0;points=[[0,0.5],[1,0.5]];portConstraint=eastwest;fontSize=12;" vertex="1" parent="1">
          <mxGeometry x="210" y="40" width="20" height="20" as="geometry" />
        </mxCell>
        <mxCell id="JHwBy-R3EQrGpB1JbKuy-105" value="(1,1)" style="text;strokeColor=none;fillColor=none;spacingLeft=4;spacingRight=4;overflow=hidden;rotatable=0;points=[[0,0.5],[1,0.5]];portConstraint=eastwest;fontSize=10;strokeWidth=0;" vertex="1" parent="1">
          <mxGeometry x="228" y="40" width="50" height="30" as="geometry" />
        </mxCell>
        <mxCell id="JHwBy-R3EQrGpB1JbKuy-106" value="1" style="text;strokeColor=none;fillColor=none;spacingLeft=4;spacingRight=4;overflow=hidden;rotatable=0;points=[[0,0.5],[1,0.5]];portConstraint=eastwest;fontSize=12;" vertex="1" parent="1">
          <mxGeometry x="235" y="65" width="20" height="20" as="geometry" />
        </mxCell>
        <mxCell id="JHwBy-R3EQrGpB1JbKuy-107" value="(1,1)" style="text;strokeColor=none;fillColor=none;spacingLeft=4;spacingRight=4;overflow=hidden;rotatable=0;points=[[0,0.5],[1,0.5]];portConstraint=eastwest;fontSize=10;strokeWidth=0;" vertex="1" parent="1">
          <mxGeometry x="253" y="65" width="50" height="30" as="geometry" />
        </mxCell>
        <mxCell id="JHwBy-R3EQrGpB1JbKuy-108" value="1" style="text;strokeColor=none;fillColor=none;spacingLeft=4;spacingRight=4;overflow=hidden;rotatable=0;points=[[0,0.5],[1,0.5]];portConstraint=eastwest;fontSize=12;" vertex="1" parent="1">
          <mxGeometry x="583" y="90" width="20" height="20" as="geometry" />
        </mxCell>
        <mxCell id="JHwBy-R3EQrGpB1JbKuy-109" value="(1,1)" style="text;strokeColor=none;fillColor=none;spacingLeft=4;spacingRight=4;overflow=hidden;rotatable=0;points=[[0,0.5],[1,0.5]];portConstraint=eastwest;fontSize=10;strokeWidth=0;" vertex="1" parent="1">
          <mxGeometry x="580" y="110" width="50" height="30" as="geometry" />
        </mxCell>
        <mxCell id="JHwBy-R3EQrGpB1JbKuy-110" value="N" style="text;strokeColor=none;fillColor=none;spacingLeft=4;spacingRight=4;overflow=hidden;rotatable=0;points=[[0,0.5],[1,0.5]];portConstraint=eastwest;fontSize=12;" vertex="1" parent="1">
          <mxGeometry x="228" y="320" width="26" height="20" as="geometry" />
        </mxCell>
        <mxCell id="JHwBy-R3EQrGpB1JbKuy-111" value="(0,N)&#xa;" style="text;strokeColor=none;fillColor=none;spacingLeft=4;spacingRight=4;overflow=hidden;rotatable=0;points=[[0,0.5],[1,0.5]];portConstraint=eastwest;fontSize=10;strokeWidth=0;" vertex="1" parent="1">
          <mxGeometry x="252" y="320" width="35" height="20" as="geometry" />
        </mxCell>
        <mxCell id="JHwBy-R3EQrGpB1JbKuy-114" value="N" style="text;strokeColor=none;fillColor=none;spacingLeft=4;spacingRight=4;overflow=hidden;rotatable=0;points=[[0,0.5],[1,0.5]];portConstraint=eastwest;fontSize=12;" vertex="1" parent="1">
          <mxGeometry x="231" y="380" width="26" height="20" as="geometry" />
        </mxCell>
        <mxCell id="JHwBy-R3EQrGpB1JbKuy-115" value="(0,N)&#xa;" style="text;strokeColor=none;fillColor=none;spacingLeft=4;spacingRight=4;overflow=hidden;rotatable=0;points=[[0,0.5],[1,0.5]];portConstraint=eastwest;fontSize=10;strokeWidth=0;" vertex="1" parent="1">
          <mxGeometry x="255" y="380" width="35" height="20" as="geometry" />
        </mxCell>
      </root>
    </mxGraphModel>
  </diagram>
</mxfile>
